<svg width="129" height="129" viewBox="0 0 129 129" fill="none" xmlns="http://www.w3.org/2000/svg">
<rect width="129" height="129" fill="black"/>
<path d="M53.5312 83.5312C53.2188 84.1562 52.8438 84.7083 52.4062 85.1875C51.9688 85.6667 51.5 86.0625 51 86.375C50.5 86.6875 49.9896 86.9167 49.4688 87.0625C48.9479 87.2292 48.4583 87.3125 48 87.3125C47.3333 87.3125 46.7708 87.1354 46.3125 86.7812C45.8542 86.4479 45.625 85.9479 45.625 85.2812C45.625 85.0521 45.6458 84.8021 45.6875 84.5312C45.75 84.2396 45.8646 83.9271 46.0312 83.5938C47.6146 80.3229 49.1875 77.1771 50.75 74.1562C52.3333 71.1354 53.8542 68.3125 55.3125 65.6875C56.7917 63.0625 58.1875 60.6771 59.5 58.5312C60.8125 56.3646 62 54.5208 63.0625 53C64.1458 51.4583 65.0625 50.2708 65.8125 49.4375C66.5833 48.6042 67.1458 48.1875 67.5 48.1875C68.2292 48.1875 68.7708 48.3958 69.125 48.8125C69.4792 49.2292 69.6562 49.7188 69.6562 50.2812C69.6562 50.7396 69.5417 51.1979 69.3125 51.6562C68.7917 52.7188 68.1979 53.9271 67.5312 55.2812C66.8854 56.6146 66.1979 58.0417 65.4688 59.5625C64.7396 61.0625 63.9792 62.625 63.1875 64.25C62.3958 65.8542 61.6146 67.4583 60.8438 69.0625C60.0729 70.6458 59.3125 72.1875 58.5625 73.6875C57.8333 75.1667 57.1458 76.5417 56.5 77.8125C55.875 79.0833 55.3021 80.2188 54.7812 81.2188C54.2812 82.1979 53.8646 82.9688 53.5312 83.5312ZM90.0625 46.9688C90.0625 47.3438 89.9167 47.875 89.625 48.5625C89.3542 49.2292 88.9583 49.8854 88.4375 50.5312C87.9375 51.1771 87.3229 51.7396 86.5938 52.2188C85.8854 52.6979 85.0938 52.9375 84.2188 52.9375C84.0104 52.9375 83.75 52.9271 83.4375 52.9062C83.125 52.8646 82.8125 52.7812 82.5 52.6562C82.2083 52.5312 81.9583 52.3542 81.75 52.125C81.5417 51.8958 81.4375 51.5938 81.4375 51.2188C81.4375 51.0312 81.5312 50.7708 81.7188 50.4375C81.9062 50.0833 82.1042 49.7083 82.3125 49.3125C82.5417 48.9167 82.75 48.5312 82.9375 48.1562C83.125 47.7812 83.2188 47.4688 83.2188 47.2188C83.2188 46.5104 82.7188 46 81.7188 45.6875C80.7188 45.3542 79.0417 45.1875 76.6875 45.1875C74.3333 45.2708 72.2083 45.4167 70.3125 45.625C68.4167 45.8125 66.6667 46.0625 65.0625 46.375C63.4583 46.6667 61.9583 47.0104 60.5625 47.4062C59.1667 47.8021 57.7917 48.2292 56.4375 48.6875C55.0833 49.125 53.7083 49.6042 52.3125 50.125C50.9375 50.625 49.4688 51.1354 47.9062 51.6562C47.7604 51.6979 47.6146 51.7396 47.4688 51.7812C47.3438 51.8229 47.2292 51.8438 47.125 51.8438C46.7917 51.8438 46.4896 51.7708 46.2188 51.625C45.9479 51.4792 45.7083 51.2812 45.5 51.0312C45.3125 50.7812 45.1562 50.5 45.0312 50.1875C44.9271 49.875 44.875 49.5521 44.875 49.2188C44.875 48.6771 45.3125 48.0729 46.1875 47.4062C47.0625 46.7188 48.2604 46.0312 49.7812 45.3438C51.3021 44.6562 53.0938 43.9896 55.1562 43.3438C57.2188 42.6771 59.4375 42.0938 61.8125 41.5938C64.2083 41.0729 66.6979 40.6667 69.2812 40.375C71.8854 40.0625 74.4792 39.9062 77.0625 39.9062C79.2917 39.9062 81.2188 40.0833 82.8438 40.4375C84.4688 40.7917 85.8125 41.2812 86.875 41.9062C87.9375 42.5312 88.7292 43.2812 89.25 44.1562C89.7708 45.0104 90.0417 45.9479 90.0625 46.9688Z" fill="white"/>
</svg>
