<svg width="75" height="75" viewBox="0 0 75 75" fill="none" xmlns="http://www.w3.org/2000/svg">
<g clip-path="url(#clip0_219_378)">
<path d="M16.4531 32.7422C15.4531 32.7422 14.9531 32.2656 14.9531 31.3125C14.9531 30.875 15.1797 30.0859 15.6328 28.9453C16.0859 27.7891 16.4766 26.8906 16.8047 26.25C17.5547 24.75 18.3203 23.7109 19.1016 23.1328C20.3516 22.2109 25.2344 21.375 33.75 20.625C37.4531 20.3125 40.1484 20.1562 41.8359 20.1562C43.5234 20.1562 44.7188 20.1797 45.4219 20.2266C46.1406 20.2734 46.8828 20.3594 47.6484 20.4844C48.4141 20.5938 49.1797 20.7422 49.9453 20.9297C50.7109 21.1016 51.4375 21.3203 52.125 21.5859C53.6094 22.1641 54.6484 22.8828 55.2422 23.7422C57.1016 26.4453 58.0312 28.6484 58.0312 30.3516C58.0312 32.2578 56.5781 34.125 53.6719 35.9531C52.7969 36.5156 51.8594 37.0781 50.8594 37.6406C47.2188 39.6094 45.0859 40.7734 44.4609 41.1328C45.7734 43.6797 48.3438 46.3125 52.1719 49.0312C52.625 49.3438 52.9844 49.5781 53.25 49.7344C54.4219 50.4219 55.8047 50.3125 57.3984 49.4062C57.8359 49.1406 58.2812 49.0078 58.7344 49.0078C59.1875 49.0078 59.5859 49.1797 59.9297 49.5234C60.2734 49.8516 60.4453 50.2188 60.4453 50.625C60.4453 52.4844 59.2031 54.4844 56.7188 56.625C54.875 58.2188 53.2109 59.0156 51.7266 59.0156C50.5234 59.0156 47.9062 57.25 43.875 53.7188C41.5938 51.7188 39.7422 49.9297 38.3203 48.3516C36.8984 46.7734 35.9219 45.6016 35.3906 44.8359C34.8594 44.0547 34.5938 43.3828 34.5938 42.8203C34.5938 42.2578 34.7266 41.7578 34.9922 41.3203C35.2734 40.8828 35.6484 40.4609 36.1172 40.0547C36.8516 39.4297 37.8984 38.7656 39.2578 38.0625C40.6172 37.3438 41.7266 36.6641 42.5859 36.0234C43.4453 35.3828 44.1875 34.7188 44.8125 34.0312C46.1875 32.5781 46.875 31.2656 46.875 30.0938C46.875 29.3281 46.6406 28.6875 46.1719 28.1719C45.3125 27.25 44.5156 26.7891 43.7812 26.7891C42.5156 26.7891 40.9688 26.875 39.1406 27.0469L36.2812 32.1094C32.6406 38.7188 30.1562 44.6719 28.8281 49.9688C28.2969 52.0312 26.2891 53.0625 22.8047 53.0625C19.9297 53.0625 18.0938 52.3906 17.2969 51.0469C17.0312 50.5938 16.9297 50.1562 16.9922 49.7344C17.0703 49.2969 17.2812 48.7344 17.625 48.0469C17.9688 47.3438 18.4375 46.4688 19.0312 45.4219L21.1172 41.8594L23.6719 37.6641L26.5547 33.1406L29.5547 28.6406C24.1016 29.8125 20.125 31.0781 17.625 32.4375C17.25 32.6406 16.8594 32.7422 16.4531 32.7422Z" fill="#00A3FF"/>
</g>
<defs>
<clipPath id="clip0_219_378">
<rect width="75" height="75" fill="white"/>
</clipPath>
</defs>
</svg>
