<svg width="65" height="59" viewBox="0 0 65 59" fill="none" xmlns="http://www.w3.org/2000/svg">
<path d="M39.7446 16.4072C37.7156 16.4072 35.6382 16.7978 33.5126 17.5791C31.4111 18.336 29.4303 19.4103 27.5704 20.802C25.7104 22.1937 24.0558 23.8783 22.6065 25.856C21.1572 27.8092 20.0702 29.97 19.3456 32.3383C17.5098 38.2713 19.3093 41.2377 24.7442 41.2377C26.8216 41.2377 28.8385 40.7861 30.7951 39.8827C32.7758 38.9549 34.6599 37.5144 36.4474 35.5611C38.2591 33.6079 39.9499 31.1175 41.52 28.09C43.1142 25.0625 44.5636 21.4246 45.8679 17.1763L45.3244 17.0664C44.938 16.9688 44.4428 16.8833 43.8389 16.8101C43.2592 16.7124 42.5949 16.6269 41.8461 16.5537C41.1214 16.456 40.4209 16.4072 39.7446 16.4072ZM23.4761 59C18.162 59 13.814 58.2797 10.4323 56.8392C7.05058 55.3987 4.51428 53.4577 2.82342 51.0161C1.13256 48.5502 0.202584 45.6936 0.0334982 42.4463C-0.135588 39.1991 0.335438 35.7687 1.44658 32.1552C2.5094 28.6882 3.89833 25.4898 5.61334 22.5599C7.32836 19.63 9.26077 16.981 11.4106 14.6127C13.5604 12.2199 15.8914 10.1202 18.4035 8.31347C20.9398 6.48231 23.5365 4.95634 26.1935 3.73557C28.8506 2.49038 31.5318 1.56259 34.2372 0.952204C36.9668 0.317401 39.6238 0 42.2084 0C44.8172 0 47.281 0.231947 49.5999 0.695841C51.943 1.13532 54.0565 1.83116 55.9406 2.78336C57.8247 3.71115 59.4552 4.8831 60.8321 6.29919C62.2089 7.69088 63.2476 9.33892 63.9481 11.2433C64.6727 13.1233 65.023 15.2719 64.9988 17.689C64.9747 20.0817 64.5157 22.7308 63.622 25.6363C62.8249 28.2487 61.8587 30.5682 60.7234 32.5947C59.6122 34.6211 58.3924 36.3913 57.0639 37.905C55.7353 39.4188 54.3585 40.7006 52.9333 41.7505C51.5323 42.7759 50.1434 43.606 48.7666 44.2408C47.3897 44.8756 46.0612 45.3395 44.781 45.6325C43.5249 45.9011 42.3896 46.0354 41.3751 46.0354C40.5296 46.0354 39.9016 45.9255 39.491 45.7058C39.1045 45.4616 38.8388 45.1442 38.6939 44.7536C38.5731 44.3629 38.561 43.9112 38.6576 43.3985C38.7542 42.8858 38.8992 42.3364 39.0924 41.7505L41.7012 33.2539C40.9765 34.6944 40.0103 36.1715 38.8026 37.6853C37.5948 39.1746 36.1817 40.5419 34.5633 41.7871C32.9691 43.0323 31.1695 44.0577 29.1646 44.8634C27.1598 45.6447 24.9979 46.0354 22.679 46.0354C20.6016 46.0354 18.8504 45.7058 17.4252 45.0466C16.0001 44.3629 14.9131 43.3985 14.1643 42.1533C13.4155 40.9081 13.0169 39.4066 12.9686 37.6487C12.9203 35.8908 13.2343 33.9131 13.9106 31.7157C14.3937 30.1287 15.1063 28.5417 16.0484 26.9547C17.0146 25.3677 18.1499 23.8417 19.4543 22.3768C20.7828 20.9119 22.2563 19.5568 23.8747 18.3116C25.493 17.042 27.196 15.9433 28.9835 15.0155C30.7951 14.0877 32.6792 13.3553 34.6358 12.8181C36.5924 12.281 38.5489 12.0124 40.5055 12.0124C40.892 12.0124 41.4234 12.0368 42.0997 12.0857C42.8002 12.1345 43.537 12.2077 44.3099 12.3054C45.0829 12.3786 45.8559 12.4763 46.6288 12.5984C47.4018 12.696 48.054 12.7937 48.5854 12.8914C49.2859 13.0134 49.7932 13.2088 50.1072 13.4773C50.4212 13.7459 50.6386 14.0755 50.7594 14.4662C50.9043 14.8324 50.9888 15.2475 51.013 15.7114C51.0613 16.1753 51.1338 16.6636 51.2304 17.1763L43.694 41.7138C45.1674 41.7138 46.5684 41.4209 47.897 40.8349C49.2255 40.2245 50.4816 39.2723 51.6652 37.9783C52.8488 36.6598 53.9478 34.9874 54.9624 32.9609C56.001 30.91 56.9672 28.444 57.861 25.563C58.7064 22.8529 59.1291 20.4724 59.1291 18.4215C59.1291 16.3462 58.803 14.5516 58.1508 13.0379C57.5228 11.5241 56.6049 10.2667 55.3972 9.26567C54.2136 8.24022 52.8488 7.42231 51.3029 6.81192C49.7811 6.17712 48.1264 5.73764 46.339 5.49348C44.5515 5.22491 42.7278 5.09063 40.8678 5.09063C37.2204 5.09063 33.6575 5.70101 30.1792 6.92179C26.725 8.14256 23.5123 9.91268 20.5412 12.2322C17.5702 14.5516 14.9252 17.396 12.6063 20.7654C10.3115 24.1103 8.51196 27.9069 7.20758 32.1552C6.16891 35.5245 5.77035 38.5642 6.0119 41.2744C6.25346 43.9601 7.12304 46.2429 8.62066 48.1229C10.1424 49.9785 12.2922 51.4068 15.0701 52.4078C17.8721 53.4089 21.3142 53.9094 25.3964 53.9094C27.4979 53.9094 29.4424 53.7751 31.2299 53.5065C33.0174 53.238 34.6237 52.9083 36.0489 52.5177C37.474 52.1026 38.7301 51.6632 39.8171 51.1993C40.9282 50.7109 41.834 50.2715 42.5345 49.8808C43.235 49.4902 43.7785 49.1484 44.165 48.8554L44.7085 48.4159L46.9912 51.7852C45.6626 52.8839 44.1288 53.8728 42.3896 54.7517C40.6746 55.6551 38.8025 56.412 36.7735 57.0223C34.7686 57.6572 32.643 58.1455 30.3965 58.4873C28.1501 58.8291 25.8433 59 23.4761 59Z" fill="black"/>
</svg>
